<?xml version="1.0" encoding="UTF-8"?>
<svg width="296px" height="129px" viewBox="0 0 296 129" version="1.1" xmlns="http://www.w3.org/2000/svg" xmlns:xlink="http://www.w3.org/1999/xlink">
    <!-- Generator: Sketch 44.1 (41455) - http://www.bohemiancoding.com/sketch -->
    <title>logo</title>
    <desc>Created with Sketch.</desc>
    <defs>
        <radialGradient cx="50%" cy="50%" fx="50%" fy="50%" r="46.0548422%" gradientTransform="translate(0.500000,0.500000),scale(1.000000,0.883636),rotate(99.188014),translate(-0.500000,-0.500000)" id="radialGradient-1">
            <stop stop-color="#D64323" offset="0%"></stop>
            <stop stop-color="#5A261B" offset="100%"></stop>
        </radialGradient>
    </defs>
    <g id="Page-1" stroke="none" stroke-width="1" fill="none" fill-rule="evenodd">
        <g id="Artboard" transform="translate(-18.000000, -350.000000)">
            <g id="logo" transform="translate(18.000000, 350.000000)">
                <g id="Group-3">
                    <g id="Group-2">
                        <polygon id="Polygon" fill="#DDDDDD" points="57 0 113.994512 32.25 113.994512 96.75 57 129 0.00548755674 96.75 0.00548755674 32.25"></polygon>
                        <polygon id="Polygon" fill="url(#radialGradient-1)" points="57.2618166 10.474359 105.161314 37.578 105.161314 91.7852819 57.2618166 118.888923 9.36231884 91.7852819 9.36231884 37.578"></polygon>
                    </g>
                    <polygon id="Rectangle-2" fill="#DDDDDD" points="17.6231884 61.7435897 29.131935 67.7016351 29.131935 93.2732622 17.6231884 87.1585537"></polygon>
                    <rect id="Rectangle-3" fill="#DDDDDD" x="23.1304348" y="23.1538462" width="1.10144928" height="48.5128205"></rect>
                </g>
                <path d="M139.672,68.584 C140.653338,67.5599949 141.698661,66.4613392 142.808,65.288 C143.917339,64.1146608 145.005328,62.9413392 146.072,61.768 C147.138672,60.5946608 148.151995,59.4640054 149.112,58.376 C150.072005,57.2879946 150.89333,56.3386707 151.576,55.528 L160.728,55.528 C158.594656,57.9173453 156.344012,60.3919872 153.976,62.952 C151.607988,65.5120128 149.229345,68.0079878 146.84,70.44 C148.120006,71.506672 149.463993,72.7973258 150.872,74.312 C152.280007,75.8266742 153.645327,77.4373248 154.968,79.144 C156.290673,80.8506752 157.527994,82.5573248 158.68,84.264 C159.832006,85.9706752 160.791996,87.5493261 161.56,89 L152.6,89 C151.831996,87.6773267 150.946672,86.2906739 149.944,84.84 C148.941328,83.3893261 147.864006,81.9813402 146.712,80.616 C145.559994,79.2506598 144.386673,77.9600061 143.192,76.744 C141.997327,75.5279939 140.824006,74.4933376 139.672,73.64 L139.672,89 L131.928,89 L131.928,40.616 L139.672,39.336 L139.672,68.584 Z M195.8,72.232 C195.8,74.8773466 195.416004,77.2879891 194.648,79.464 C193.879996,81.6400109 192.792007,83.4959923 191.384,85.032 C189.975993,86.5680077 188.28001,87.7626624 186.296,88.616 C184.31199,89.4693376 182.125345,89.896 179.736,89.896 C177.346655,89.896 175.170676,89.4693376 173.208,88.616 C171.245324,87.7626624 169.560007,86.5680077 168.152,85.032 C166.743993,83.4959923 165.645337,81.6400109 164.856,79.464 C164.066663,77.2879891 163.672,74.8773466 163.672,72.232 C163.672,69.5866534 164.066663,67.1866774 164.856,65.032 C165.645337,62.8773226 166.75466,61.0320077 168.184,59.496 C169.61334,57.9599923 171.309324,56.7760042 173.272,55.944 C175.234676,55.1119958 177.389322,54.696 179.736,54.696 C182.082678,54.696 184.24799,55.1119958 186.232,55.944 C188.21601,56.7760042 189.911993,57.9599923 191.32,59.496 C192.728007,61.0320077 193.826663,62.8773226 194.616,65.032 C195.405337,67.1866774 195.8,69.5866534 195.8,72.232 Z M187.864,72.232 C187.864,68.9039834 187.14934,66.269343 185.72,64.328 C184.29066,62.386657 182.296013,61.416 179.736,61.416 C177.175987,61.416 175.18134,62.386657 173.752,64.328 C172.32266,66.269343 171.608,68.9039834 171.608,72.232 C171.608,75.6026835 172.32266,78.2693235 173.752,80.232 C175.18134,82.1946765 177.175987,83.176 179.736,83.176 C182.296013,83.176 184.29066,82.1946765 185.72,80.232 C187.14934,78.2693235 187.864,75.6026835 187.864,72.232 Z M201.944,72.296 C201.944,69.821321 202.327996,67.5066774 203.096,65.352 C203.864004,63.1973226 204.96266,61.3306746 206.392,59.752 C207.82134,58.1733254 209.55999,56.9360045 211.608,56.04 C213.65601,55.1439955 215.959987,54.696 218.52,54.696 C221.677349,54.696 224.663986,55.2719942 227.48,56.424 L225.816,62.76 C224.919996,62.3759981 223.906672,62.0560013 222.776,61.8 C221.645328,61.5439987 220.440006,61.416 219.16,61.416 C216.130652,61.416 213.826675,62.3653238 212.248,64.264 C210.669325,66.1626762 209.88,68.8399827 209.88,72.296 C209.88,75.6240166 210.626659,78.258657 212.12,80.2 C213.613341,82.141343 216.130649,83.112 219.672,83.112 C220.994673,83.112 222.295994,82.9840013 223.576,82.728 C224.856006,82.4719987 225.965329,82.1520019 226.904,81.768 L227.992,88.168 C227.138662,88.5946688 225.848009,88.978665 224.12,89.32 C222.391991,89.661335 220.610676,89.832 218.776,89.832 C215.917319,89.832 213.432011,89.394671 211.32,88.52 C209.207989,87.645329 207.458674,86.4293411 206.072,84.872 C204.685326,83.3146589 203.65067,81.4586774 202.968,79.304 C202.28533,77.1493226 201.944,74.8133459 201.944,72.296 Z M234.008,89 L234.008,40.616 L241.752,39.336 L241.752,55.912 C242.605338,55.6133318 243.597328,55.3573344 244.728,55.144 C245.858672,54.9306656 246.978661,54.824 248.088,54.824 C250.776013,54.824 253.005324,55.1973296 254.776,55.944 C256.546676,56.6906704 257.965328,57.7359933 259.032,59.08 C260.098672,60.4240067 260.855998,62.0346573 261.304,63.912 C261.752002,65.7893427 261.976,67.8799885 261.976,70.184 L261.976,89 L254.232,89 L254.232,71.4 C254.232,69.607991 254.114668,68.082673 253.88,66.824 C253.645332,65.565327 253.261336,64.5413373 252.728,63.752 C252.194664,62.9626627 251.480004,62.3866685 250.584,62.024 C249.687996,61.6613315 248.578673,61.48 247.256,61.48 C246.231995,61.48 245.186672,61.5866656 244.12,61.8 C243.053328,62.0133344 242.264003,62.2053325 241.752,62.376 L241.752,89 L234.008,89 Z M283.032,83.56 C285.421345,83.56 287.23466,83.4320013 288.472,83.176 L288.472,74.6 C288.045331,74.4719994 287.426671,74.3440006 286.616,74.216 C285.805329,74.0879994 284.909338,74.024 283.928,74.024 C283.074662,74.024 282.210671,74.0879994 281.336,74.216 C280.461329,74.3440006 279.672004,74.578665 278.968,74.92 C278.263996,75.261335 277.698669,75.7413302 277.272,76.36 C276.845331,76.9786698 276.632,77.7573286 276.632,78.696 C276.632,80.5306758 277.207994,81.7999965 278.36,82.504 C279.512006,83.2080035 281.069324,83.56 283.032,83.56 Z M282.392,54.696 C284.952013,54.696 287.106658,55.0159968 288.856,55.656 C290.605342,56.2960032 292.002661,57.1919942 293.048,58.344 C294.093339,59.4960058 294.839998,60.8933251 295.288,62.536 C295.736002,64.1786749 295.96,65.9813235 295.96,67.944 L295.96,88.232 C294.765327,88.4880013 292.962679,88.7973315 290.552,89.16 C288.141321,89.5226685 285.421348,89.704 282.392,89.704 C280.386657,89.704 278.552008,89.5120019 276.888,89.128 C275.223992,88.7439981 273.805339,88.1253376 272.632,87.272 C271.458661,86.4186624 270.541337,85.3093402 269.88,83.944 C269.218663,82.5786598 268.888,80.8933434 268.888,78.888 C268.888,76.9679904 269.26133,75.3466733 270.008,74.024 C270.75467,72.7013267 271.767994,71.6240042 273.048,70.792 C274.328006,69.9599958 275.810658,69.3626685 277.496,69 C279.181342,68.6373315 280.941324,68.456 282.776,68.456 C283.629338,68.456 284.525329,68.5093328 285.464,68.616 C286.402671,68.7226672 287.405328,68.9039987 288.472,69.16 L288.472,67.88 C288.472,66.9839955 288.365334,66.1306707 288.152,65.32 C287.938666,64.5093293 287.565336,63.7946698 287.032,63.176 C286.498664,62.5573302 285.794671,62.077335 284.92,61.736 C284.045329,61.394665 282.946673,61.224 281.624,61.224 C279.831991,61.224 278.189341,61.3519987 276.696,61.608 C275.202659,61.8640013 273.986671,62.162665 273.048,62.504 L272.088,56.232 C273.069338,55.890665 274.498657,55.549335 276.376,55.208 C278.253343,54.866665 280.258656,54.696 282.392,54.696 Z" id="kocha" fill="#481403"></path>
            </g>
        </g>
    </g>
</svg>